<mxfile host="app.diagrams.net" modified="2023-07-27T18:18:31.570Z" agent="Mozilla/5.0 (Windows NT 10.0; Win64; x64) AppleWebKit/537.36 (KHTML, like Gecko) Chrome/115.0.0.0 Safari/537.36" etag="FmtwFXcbY73AmiOwTQtA" version="21.6.5" type="device">
  <diagram name="Página-1" id="xvMFdYJDLNt6Y5hj_VbA">
    <mxGraphModel dx="1050" dy="542" grid="1" gridSize="10" guides="1" tooltips="1" connect="1" arrows="1" fold="1" page="1" pageScale="1" pageWidth="827" pageHeight="1169" math="0" shadow="0">
      <root>
        <mxCell id="0" />
        <mxCell id="1" parent="0" />
        <mxCell id="6sNlZ0BKxcSuTAz0ptZP-1" value="Uma clínica veterinária deseja cadastrar os pets que são atendidos em seu local.&#xa;&#xa;&#xa;- a clínica contém um endereço;&#xa;- os pets deverão ter nome, data de nascimento, tipo de pet;&#xa;- os pets deverão ter raça;&#xa;- os pets deverão ter donos;&#xa;- a clínica deseja cadastrar seus veterinários e todo atendimento de pet será feito por um veterinário;" style="text;whiteSpace=wrap;" parent="1" vertex="1">
          <mxGeometry width="560" height="150" as="geometry" />
        </mxCell>
        <mxCell id="6sNlZ0BKxcSuTAz0ptZP-4" style="edgeStyle=orthogonalEdgeStyle;rounded=0;orthogonalLoop=1;jettySize=auto;html=1;entryX=1;entryY=0.5;entryDx=0;entryDy=0;endArrow=none;endFill=0;" parent="1" source="6sNlZ0BKxcSuTAz0ptZP-2" target="6sNlZ0BKxcSuTAz0ptZP-3" edge="1">
          <mxGeometry relative="1" as="geometry">
            <Array as="points">
              <mxPoint x="80" y="200" />
            </Array>
          </mxGeometry>
        </mxCell>
        <mxCell id="6sNlZ0BKxcSuTAz0ptZP-8" style="edgeStyle=orthogonalEdgeStyle;rounded=0;orthogonalLoop=1;jettySize=auto;html=1;entryX=0.5;entryY=0;entryDx=0;entryDy=0;endArrow=none;endFill=0;" parent="1" source="6sNlZ0BKxcSuTAz0ptZP-2" target="6sNlZ0BKxcSuTAz0ptZP-7" edge="1">
          <mxGeometry relative="1" as="geometry" />
        </mxCell>
        <mxCell id="6sNlZ0BKxcSuTAz0ptZP-2" value="Clinica" style="rounded=0;whiteSpace=wrap;html=1;" parent="1" vertex="1">
          <mxGeometry x="105" y="170" width="120" height="60" as="geometry" />
        </mxCell>
        <mxCell id="6sNlZ0BKxcSuTAz0ptZP-3" value="endereço" style="ellipse;whiteSpace=wrap;html=1;" parent="1" vertex="1">
          <mxGeometry x="10" y="180" width="70" height="40" as="geometry" />
        </mxCell>
        <mxCell id="6sNlZ0BKxcSuTAz0ptZP-17" style="edgeStyle=orthogonalEdgeStyle;rounded=0;orthogonalLoop=1;jettySize=auto;html=1;entryX=0;entryY=0.5;entryDx=0;entryDy=0;endArrow=none;endFill=0;" parent="1" source="6sNlZ0BKxcSuTAz0ptZP-5" target="6sNlZ0BKxcSuTAz0ptZP-16" edge="1">
          <mxGeometry relative="1" as="geometry" />
        </mxCell>
        <mxCell id="6sNlZ0BKxcSuTAz0ptZP-5" value="Veterinarios" style="rounded=0;whiteSpace=wrap;html=1;" parent="1" vertex="1">
          <mxGeometry x="105" y="375" width="120" height="60" as="geometry" />
        </mxCell>
        <mxCell id="6sNlZ0BKxcSuTAz0ptZP-9" style="edgeStyle=orthogonalEdgeStyle;rounded=0;orthogonalLoop=1;jettySize=auto;html=1;exitX=0.5;exitY=1;exitDx=0;exitDy=0;entryX=0.5;entryY=0;entryDx=0;entryDy=0;endArrow=none;endFill=0;" parent="1" source="6sNlZ0BKxcSuTAz0ptZP-7" target="6sNlZ0BKxcSuTAz0ptZP-5" edge="1">
          <mxGeometry relative="1" as="geometry" />
        </mxCell>
        <mxCell id="6sNlZ0BKxcSuTAz0ptZP-7" value="cadastra" style="rhombus;whiteSpace=wrap;html=1;" parent="1" vertex="1">
          <mxGeometry x="130" y="260" width="70" height="70" as="geometry" />
        </mxCell>
        <mxCell id="6sNlZ0BKxcSuTAz0ptZP-11" style="edgeStyle=orthogonalEdgeStyle;rounded=0;orthogonalLoop=1;jettySize=auto;html=1;entryX=0;entryY=0.5;entryDx=0;entryDy=0;endArrow=none;endFill=0;" parent="1" source="6sNlZ0BKxcSuTAz0ptZP-10" target="6sNlZ0BKxcSuTAz0ptZP-5" edge="1">
          <mxGeometry relative="1" as="geometry" />
        </mxCell>
        <mxCell id="6sNlZ0BKxcSuTAz0ptZP-10" value="nome" style="ellipse;whiteSpace=wrap;html=1;" parent="1" vertex="1">
          <mxGeometry x="10" y="380" width="70" height="50" as="geometry" />
        </mxCell>
        <mxCell id="6sNlZ0BKxcSuTAz0ptZP-13" style="edgeStyle=orthogonalEdgeStyle;rounded=0;orthogonalLoop=1;jettySize=auto;html=1;entryX=0.5;entryY=1;entryDx=0;entryDy=0;endArrow=none;endFill=0;" parent="1" source="6sNlZ0BKxcSuTAz0ptZP-12" target="6sNlZ0BKxcSuTAz0ptZP-5" edge="1">
          <mxGeometry relative="1" as="geometry" />
        </mxCell>
        <mxCell id="6sNlZ0BKxcSuTAz0ptZP-12" value="num cadastro" style="ellipse;whiteSpace=wrap;html=1;" parent="1" vertex="1">
          <mxGeometry x="10" y="450" width="70" height="50" as="geometry" />
        </mxCell>
        <mxCell id="6sNlZ0BKxcSuTAz0ptZP-14" value="1" style="text;html=1;strokeColor=none;fillColor=none;align=center;verticalAlign=middle;whiteSpace=wrap;rounded=0;" parent="1" vertex="1">
          <mxGeometry x="150" y="230" width="60" height="30" as="geometry" />
        </mxCell>
        <mxCell id="6sNlZ0BKxcSuTAz0ptZP-15" value="n" style="text;html=1;strokeColor=none;fillColor=none;align=center;verticalAlign=middle;whiteSpace=wrap;rounded=0;" parent="1" vertex="1">
          <mxGeometry x="150" y="345" width="60" height="30" as="geometry" />
        </mxCell>
        <mxCell id="6sNlZ0BKxcSuTAz0ptZP-19" style="edgeStyle=orthogonalEdgeStyle;rounded=0;orthogonalLoop=1;jettySize=auto;html=1;entryX=0;entryY=0.5;entryDx=0;entryDy=0;endArrow=none;endFill=0;" parent="1" source="6sNlZ0BKxcSuTAz0ptZP-16" target="6sNlZ0BKxcSuTAz0ptZP-18" edge="1">
          <mxGeometry relative="1" as="geometry" />
        </mxCell>
        <mxCell id="6sNlZ0BKxcSuTAz0ptZP-16" value="atende" style="rhombus;whiteSpace=wrap;html=1;" parent="1" vertex="1">
          <mxGeometry x="290" y="370" width="70" height="70" as="geometry" />
        </mxCell>
        <mxCell id="6sNlZ0BKxcSuTAz0ptZP-25" style="edgeStyle=orthogonalEdgeStyle;rounded=0;orthogonalLoop=1;jettySize=auto;html=1;entryX=0;entryY=0.5;entryDx=0;entryDy=0;endArrow=none;endFill=0;" parent="1" source="6sNlZ0BKxcSuTAz0ptZP-18" target="6sNlZ0BKxcSuTAz0ptZP-23" edge="1">
          <mxGeometry relative="1" as="geometry">
            <Array as="points">
              <mxPoint x="610" y="405" />
              <mxPoint x="610" y="405" />
            </Array>
          </mxGeometry>
        </mxCell>
        <mxCell id="6sNlZ0BKxcSuTAz0ptZP-28" style="edgeStyle=orthogonalEdgeStyle;rounded=0;orthogonalLoop=1;jettySize=auto;html=1;exitX=1;exitY=0.5;exitDx=0;exitDy=0;entryX=0.5;entryY=0;entryDx=0;entryDy=0;endArrow=none;endFill=0;" parent="1" source="6sNlZ0BKxcSuTAz0ptZP-18" target="6sNlZ0BKxcSuTAz0ptZP-27" edge="1">
          <mxGeometry relative="1" as="geometry">
            <Array as="points">
              <mxPoint x="565" y="405" />
            </Array>
          </mxGeometry>
        </mxCell>
        <mxCell id="6sNlZ0BKxcSuTAz0ptZP-30" style="edgeStyle=orthogonalEdgeStyle;rounded=0;orthogonalLoop=1;jettySize=auto;html=1;entryX=0.5;entryY=1;entryDx=0;entryDy=0;endArrow=none;endFill=0;" parent="1" source="6sNlZ0BKxcSuTAz0ptZP-18" target="6sNlZ0BKxcSuTAz0ptZP-29" edge="1">
          <mxGeometry relative="1" as="geometry" />
        </mxCell>
        <mxCell id="6sNlZ0BKxcSuTAz0ptZP-32" style="edgeStyle=orthogonalEdgeStyle;rounded=0;orthogonalLoop=1;jettySize=auto;html=1;entryX=0;entryY=0.5;entryDx=0;entryDy=0;endArrow=none;endFill=0;" parent="1" source="v3QOiCCB6ne_9LAJvWD1-1" target="v3QOiCCB6ne_9LAJvWD1-104" edge="1">
          <mxGeometry relative="1" as="geometry">
            <mxPoint x="480" y="190" as="targetPoint" />
          </mxGeometry>
        </mxCell>
        <mxCell id="v3QOiCCB6ne_9LAJvWD1-4" style="edgeStyle=orthogonalEdgeStyle;rounded=0;orthogonalLoop=1;jettySize=auto;html=1;entryX=0.5;entryY=1;entryDx=0;entryDy=0;endArrow=none;endFill=0;" edge="1" parent="1" source="6sNlZ0BKxcSuTAz0ptZP-18" target="v3QOiCCB6ne_9LAJvWD1-1">
          <mxGeometry relative="1" as="geometry" />
        </mxCell>
        <mxCell id="6sNlZ0BKxcSuTAz0ptZP-18" value="PET" style="rounded=0;whiteSpace=wrap;html=1;" parent="1" vertex="1">
          <mxGeometry x="420" y="382.5" width="80" height="45" as="geometry" />
        </mxCell>
        <mxCell id="6sNlZ0BKxcSuTAz0ptZP-21" value="1" style="text;html=1;strokeColor=none;fillColor=none;align=center;verticalAlign=middle;whiteSpace=wrap;rounded=0;" parent="1" vertex="1">
          <mxGeometry x="210" y="380" width="60" height="30" as="geometry" />
        </mxCell>
        <mxCell id="6sNlZ0BKxcSuTAz0ptZP-22" value="n" style="text;html=1;strokeColor=none;fillColor=none;align=center;verticalAlign=middle;whiteSpace=wrap;rounded=0;" parent="1" vertex="1">
          <mxGeometry x="380" y="380" width="60" height="30" as="geometry" />
        </mxCell>
        <mxCell id="6sNlZ0BKxcSuTAz0ptZP-23" value="nome" style="ellipse;whiteSpace=wrap;html=1;" parent="1" vertex="1">
          <mxGeometry x="630" y="380" width="70" height="50" as="geometry" />
        </mxCell>
        <mxCell id="6sNlZ0BKxcSuTAz0ptZP-27" value="Donos" style="ellipse;whiteSpace=wrap;html=1;" parent="1" vertex="1">
          <mxGeometry x="520" y="445" width="90" height="60" as="geometry" />
        </mxCell>
        <mxCell id="6sNlZ0BKxcSuTAz0ptZP-29" value="data de nascimento" style="ellipse;whiteSpace=wrap;html=1;" parent="1" vertex="1">
          <mxGeometry x="520" y="300" width="90" height="60" as="geometry" />
        </mxCell>
        <mxCell id="v3QOiCCB6ne_9LAJvWD1-31" style="edgeStyle=orthogonalEdgeStyle;rounded=0;orthogonalLoop=1;jettySize=auto;html=1;entryX=0;entryY=0.5;entryDx=0;entryDy=0;endArrow=none;endFill=0;" edge="1" parent="1" source="v3QOiCCB6ne_9LAJvWD1-32" target="v3QOiCCB6ne_9LAJvWD1-105">
          <mxGeometry relative="1" as="geometry">
            <mxPoint x="737" y="190" as="targetPoint" />
          </mxGeometry>
        </mxCell>
        <mxCell id="v3QOiCCB6ne_9LAJvWD1-1" value="Possui" style="rhombus;whiteSpace=wrap;html=1;" vertex="1" parent="1">
          <mxGeometry x="420" y="250" width="80" height="80" as="geometry" />
        </mxCell>
        <mxCell id="v3QOiCCB6ne_9LAJvWD1-5" value="Clinica" style="shape=table;startSize=30;container=1;collapsible=1;childLayout=tableLayout;fixedRows=1;rowLines=0;fontStyle=1;align=center;resizeLast=1;html=1;" vertex="1" parent="1">
          <mxGeometry x="20" y="630" width="180" height="90" as="geometry" />
        </mxCell>
        <mxCell id="v3QOiCCB6ne_9LAJvWD1-6" value="" style="shape=tableRow;horizontal=0;startSize=0;swimlaneHead=0;swimlaneBody=0;fillColor=none;collapsible=0;dropTarget=0;points=[[0,0.5],[1,0.5]];portConstraint=eastwest;top=0;left=0;right=0;bottom=1;" vertex="1" parent="v3QOiCCB6ne_9LAJvWD1-5">
          <mxGeometry y="30" width="180" height="30" as="geometry" />
        </mxCell>
        <mxCell id="v3QOiCCB6ne_9LAJvWD1-7" value="PK" style="shape=partialRectangle;connectable=0;fillColor=none;top=0;left=0;bottom=0;right=0;fontStyle=1;overflow=hidden;whiteSpace=wrap;html=1;" vertex="1" parent="v3QOiCCB6ne_9LAJvWD1-6">
          <mxGeometry width="30" height="30" as="geometry">
            <mxRectangle width="30" height="30" as="alternateBounds" />
          </mxGeometry>
        </mxCell>
        <mxCell id="v3QOiCCB6ne_9LAJvWD1-8" value="IdClinica" style="shape=partialRectangle;connectable=0;fillColor=none;top=0;left=0;bottom=0;right=0;align=left;spacingLeft=6;fontStyle=5;overflow=hidden;whiteSpace=wrap;html=1;" vertex="1" parent="v3QOiCCB6ne_9LAJvWD1-6">
          <mxGeometry x="30" width="150" height="30" as="geometry">
            <mxRectangle width="150" height="30" as="alternateBounds" />
          </mxGeometry>
        </mxCell>
        <mxCell id="v3QOiCCB6ne_9LAJvWD1-9" value="" style="shape=tableRow;horizontal=0;startSize=0;swimlaneHead=0;swimlaneBody=0;fillColor=none;collapsible=0;dropTarget=0;points=[[0,0.5],[1,0.5]];portConstraint=eastwest;top=0;left=0;right=0;bottom=0;" vertex="1" parent="v3QOiCCB6ne_9LAJvWD1-5">
          <mxGeometry y="60" width="180" height="30" as="geometry" />
        </mxCell>
        <mxCell id="v3QOiCCB6ne_9LAJvWD1-10" value="" style="shape=partialRectangle;connectable=0;fillColor=none;top=0;left=0;bottom=0;right=0;editable=1;overflow=hidden;whiteSpace=wrap;html=1;" vertex="1" parent="v3QOiCCB6ne_9LAJvWD1-9">
          <mxGeometry width="30" height="30" as="geometry">
            <mxRectangle width="30" height="30" as="alternateBounds" />
          </mxGeometry>
        </mxCell>
        <mxCell id="v3QOiCCB6ne_9LAJvWD1-11" value="Endereço" style="shape=partialRectangle;connectable=0;fillColor=none;top=0;left=0;bottom=0;right=0;align=left;spacingLeft=6;overflow=hidden;whiteSpace=wrap;html=1;" vertex="1" parent="v3QOiCCB6ne_9LAJvWD1-9">
          <mxGeometry x="30" width="150" height="30" as="geometry">
            <mxRectangle width="150" height="30" as="alternateBounds" />
          </mxGeometry>
        </mxCell>
        <mxCell id="v3QOiCCB6ne_9LAJvWD1-18" value="Veterinario" style="shape=table;startSize=30;container=1;collapsible=1;childLayout=tableLayout;fixedRows=1;rowLines=0;fontStyle=1;align=center;resizeLast=1;html=1;whiteSpace=wrap;" vertex="1" parent="1">
          <mxGeometry x="270" y="630" width="180" height="120" as="geometry" />
        </mxCell>
        <mxCell id="v3QOiCCB6ne_9LAJvWD1-19" value="" style="shape=tableRow;horizontal=0;startSize=0;swimlaneHead=0;swimlaneBody=0;fillColor=none;collapsible=0;dropTarget=0;points=[[0,0.5],[1,0.5]];portConstraint=eastwest;top=0;left=0;right=0;bottom=0;html=1;" vertex="1" parent="v3QOiCCB6ne_9LAJvWD1-18">
          <mxGeometry y="30" width="180" height="30" as="geometry" />
        </mxCell>
        <mxCell id="v3QOiCCB6ne_9LAJvWD1-20" value="PK" style="shape=partialRectangle;connectable=0;fillColor=none;top=0;left=0;bottom=0;right=0;fontStyle=1;overflow=hidden;html=1;whiteSpace=wrap;" vertex="1" parent="v3QOiCCB6ne_9LAJvWD1-19">
          <mxGeometry width="60" height="30" as="geometry">
            <mxRectangle width="60" height="30" as="alternateBounds" />
          </mxGeometry>
        </mxCell>
        <mxCell id="v3QOiCCB6ne_9LAJvWD1-21" value="IdVeterinario" style="shape=partialRectangle;connectable=0;fillColor=none;top=0;left=0;bottom=0;right=0;align=left;spacingLeft=6;fontStyle=5;overflow=hidden;html=1;whiteSpace=wrap;" vertex="1" parent="v3QOiCCB6ne_9LAJvWD1-19">
          <mxGeometry x="60" width="120" height="30" as="geometry">
            <mxRectangle width="120" height="30" as="alternateBounds" />
          </mxGeometry>
        </mxCell>
        <mxCell id="v3QOiCCB6ne_9LAJvWD1-22" value="" style="shape=tableRow;horizontal=0;startSize=0;swimlaneHead=0;swimlaneBody=0;fillColor=none;collapsible=0;dropTarget=0;points=[[0,0.5],[1,0.5]];portConstraint=eastwest;top=0;left=0;right=0;bottom=1;html=1;" vertex="1" parent="v3QOiCCB6ne_9LAJvWD1-18">
          <mxGeometry y="60" width="180" height="30" as="geometry" />
        </mxCell>
        <mxCell id="v3QOiCCB6ne_9LAJvWD1-23" value="FK" style="shape=partialRectangle;connectable=0;fillColor=none;top=0;left=0;bottom=0;right=0;fontStyle=1;overflow=hidden;html=1;whiteSpace=wrap;" vertex="1" parent="v3QOiCCB6ne_9LAJvWD1-22">
          <mxGeometry width="60" height="30" as="geometry">
            <mxRectangle width="60" height="30" as="alternateBounds" />
          </mxGeometry>
        </mxCell>
        <mxCell id="v3QOiCCB6ne_9LAJvWD1-24" value="IdClinica" style="shape=partialRectangle;connectable=0;fillColor=none;top=0;left=0;bottom=0;right=0;align=left;spacingLeft=6;fontStyle=5;overflow=hidden;html=1;whiteSpace=wrap;" vertex="1" parent="v3QOiCCB6ne_9LAJvWD1-22">
          <mxGeometry x="60" width="120" height="30" as="geometry">
            <mxRectangle width="120" height="30" as="alternateBounds" />
          </mxGeometry>
        </mxCell>
        <mxCell id="v3QOiCCB6ne_9LAJvWD1-25" value="" style="shape=tableRow;horizontal=0;startSize=0;swimlaneHead=0;swimlaneBody=0;fillColor=none;collapsible=0;dropTarget=0;points=[[0,0.5],[1,0.5]];portConstraint=eastwest;top=0;left=0;right=0;bottom=0;html=1;" vertex="1" parent="v3QOiCCB6ne_9LAJvWD1-18">
          <mxGeometry y="90" width="180" height="30" as="geometry" />
        </mxCell>
        <mxCell id="v3QOiCCB6ne_9LAJvWD1-26" value="" style="shape=partialRectangle;connectable=0;fillColor=none;top=0;left=0;bottom=0;right=0;editable=1;overflow=hidden;html=1;whiteSpace=wrap;" vertex="1" parent="v3QOiCCB6ne_9LAJvWD1-25">
          <mxGeometry width="60" height="30" as="geometry">
            <mxRectangle width="60" height="30" as="alternateBounds" />
          </mxGeometry>
        </mxCell>
        <mxCell id="v3QOiCCB6ne_9LAJvWD1-27" value="Nome" style="shape=partialRectangle;connectable=0;fillColor=none;top=0;left=0;bottom=0;right=0;align=left;spacingLeft=6;overflow=hidden;html=1;whiteSpace=wrap;" vertex="1" parent="v3QOiCCB6ne_9LAJvWD1-25">
          <mxGeometry x="60" width="120" height="30" as="geometry">
            <mxRectangle width="120" height="30" as="alternateBounds" />
          </mxGeometry>
        </mxCell>
        <mxCell id="v3QOiCCB6ne_9LAJvWD1-33" value="" style="edgeStyle=orthogonalEdgeStyle;rounded=0;orthogonalLoop=1;jettySize=auto;html=1;entryX=0;entryY=0.5;entryDx=0;entryDy=0;endArrow=none;endFill=0;exitX=1;exitY=0.5;exitDx=0;exitDy=0;" edge="1" parent="1" source="v3QOiCCB6ne_9LAJvWD1-104" target="v3QOiCCB6ne_9LAJvWD1-32">
          <mxGeometry relative="1" as="geometry">
            <mxPoint x="570" y="190" as="sourcePoint" />
            <mxPoint x="737" y="190" as="targetPoint" />
          </mxGeometry>
        </mxCell>
        <mxCell id="v3QOiCCB6ne_9LAJvWD1-32" value="Possui" style="rhombus;whiteSpace=wrap;html=1;" vertex="1" parent="1">
          <mxGeometry x="610" y="150" width="80" height="80" as="geometry" />
        </mxCell>
        <mxCell id="v3QOiCCB6ne_9LAJvWD1-34" style="edgeStyle=orthogonalEdgeStyle;rounded=0;orthogonalLoop=1;jettySize=auto;html=1;entryX=0;entryY=0.5;entryDx=0;entryDy=0;endArrow=ERoneToMany;endFill=0;" edge="1" parent="1" source="v3QOiCCB6ne_9LAJvWD1-6" target="v3QOiCCB6ne_9LAJvWD1-22">
          <mxGeometry relative="1" as="geometry" />
        </mxCell>
        <mxCell id="v3QOiCCB6ne_9LAJvWD1-48" value="Tipo de Pet" style="shape=table;startSize=30;container=1;collapsible=1;childLayout=tableLayout;fixedRows=1;rowLines=0;fontStyle=1;align=center;resizeLast=1;html=1;" vertex="1" parent="1">
          <mxGeometry x="20" y="900" width="180" height="90" as="geometry" />
        </mxCell>
        <mxCell id="v3QOiCCB6ne_9LAJvWD1-49" value="" style="shape=tableRow;horizontal=0;startSize=0;swimlaneHead=0;swimlaneBody=0;fillColor=none;collapsible=0;dropTarget=0;points=[[0,0.5],[1,0.5]];portConstraint=eastwest;top=0;left=0;right=0;bottom=1;" vertex="1" parent="v3QOiCCB6ne_9LAJvWD1-48">
          <mxGeometry y="30" width="180" height="30" as="geometry" />
        </mxCell>
        <mxCell id="v3QOiCCB6ne_9LAJvWD1-50" value="PK" style="shape=partialRectangle;connectable=0;fillColor=none;top=0;left=0;bottom=0;right=0;fontStyle=1;overflow=hidden;whiteSpace=wrap;html=1;" vertex="1" parent="v3QOiCCB6ne_9LAJvWD1-49">
          <mxGeometry width="30" height="30" as="geometry">
            <mxRectangle width="30" height="30" as="alternateBounds" />
          </mxGeometry>
        </mxCell>
        <mxCell id="v3QOiCCB6ne_9LAJvWD1-51" value="IdTipo" style="shape=partialRectangle;connectable=0;fillColor=none;top=0;left=0;bottom=0;right=0;align=left;spacingLeft=6;fontStyle=5;overflow=hidden;whiteSpace=wrap;html=1;" vertex="1" parent="v3QOiCCB6ne_9LAJvWD1-49">
          <mxGeometry x="30" width="150" height="30" as="geometry">
            <mxRectangle width="150" height="30" as="alternateBounds" />
          </mxGeometry>
        </mxCell>
        <mxCell id="v3QOiCCB6ne_9LAJvWD1-61" style="shape=tableRow;horizontal=0;startSize=0;swimlaneHead=0;swimlaneBody=0;fillColor=none;collapsible=0;dropTarget=0;points=[[0,0.5],[1,0.5]];portConstraint=eastwest;top=0;left=0;right=0;bottom=1;" vertex="1" parent="v3QOiCCB6ne_9LAJvWD1-48">
          <mxGeometry y="60" width="180" height="30" as="geometry" />
        </mxCell>
        <mxCell id="v3QOiCCB6ne_9LAJvWD1-62" style="shape=partialRectangle;connectable=0;fillColor=none;top=0;left=0;bottom=0;right=0;fontStyle=1;overflow=hidden;whiteSpace=wrap;html=1;" vertex="1" parent="v3QOiCCB6ne_9LAJvWD1-61">
          <mxGeometry width="30" height="30" as="geometry">
            <mxRectangle width="30" height="30" as="alternateBounds" />
          </mxGeometry>
        </mxCell>
        <mxCell id="v3QOiCCB6ne_9LAJvWD1-63" value="&lt;span style=&quot;font-weight: normal;&quot;&gt;Nome&lt;/span&gt;" style="shape=partialRectangle;connectable=0;fillColor=none;top=0;left=0;bottom=0;right=0;align=left;spacingLeft=6;fontStyle=5;overflow=hidden;whiteSpace=wrap;html=1;" vertex="1" parent="v3QOiCCB6ne_9LAJvWD1-61">
          <mxGeometry x="30" width="150" height="30" as="geometry">
            <mxRectangle width="150" height="30" as="alternateBounds" />
          </mxGeometry>
        </mxCell>
        <mxCell id="v3QOiCCB6ne_9LAJvWD1-64" value="Raça" style="shape=table;startSize=20;container=1;collapsible=1;childLayout=tableLayout;fixedRows=1;rowLines=0;fontStyle=1;align=center;resizeLast=1;html=1;whiteSpace=wrap;" vertex="1" parent="1">
          <mxGeometry x="250" y="880" width="180" height="120" as="geometry" />
        </mxCell>
        <mxCell id="v3QOiCCB6ne_9LAJvWD1-65" value="" style="shape=tableRow;horizontal=0;startSize=0;swimlaneHead=0;swimlaneBody=0;fillColor=none;collapsible=0;dropTarget=0;points=[[0,0.5],[1,0.5]];portConstraint=eastwest;top=0;left=0;right=0;bottom=0;html=1;" vertex="1" parent="v3QOiCCB6ne_9LAJvWD1-64">
          <mxGeometry y="20" width="180" height="30" as="geometry" />
        </mxCell>
        <mxCell id="v3QOiCCB6ne_9LAJvWD1-66" value="PK" style="shape=partialRectangle;connectable=0;fillColor=none;top=0;left=0;bottom=0;right=0;fontStyle=1;overflow=hidden;html=1;whiteSpace=wrap;" vertex="1" parent="v3QOiCCB6ne_9LAJvWD1-65">
          <mxGeometry width="60" height="30" as="geometry">
            <mxRectangle width="60" height="30" as="alternateBounds" />
          </mxGeometry>
        </mxCell>
        <mxCell id="v3QOiCCB6ne_9LAJvWD1-67" value="IdRaça" style="shape=partialRectangle;connectable=0;fillColor=none;top=0;left=0;bottom=0;right=0;align=left;spacingLeft=6;fontStyle=5;overflow=hidden;html=1;whiteSpace=wrap;" vertex="1" parent="v3QOiCCB6ne_9LAJvWD1-65">
          <mxGeometry x="60" width="120" height="30" as="geometry">
            <mxRectangle width="120" height="30" as="alternateBounds" />
          </mxGeometry>
        </mxCell>
        <mxCell id="v3QOiCCB6ne_9LAJvWD1-68" value="" style="shape=tableRow;horizontal=0;startSize=0;swimlaneHead=0;swimlaneBody=0;fillColor=none;collapsible=0;dropTarget=0;points=[[0,0.5],[1,0.5]];portConstraint=eastwest;top=0;left=0;right=0;bottom=1;html=1;" vertex="1" parent="v3QOiCCB6ne_9LAJvWD1-64">
          <mxGeometry y="50" width="180" height="30" as="geometry" />
        </mxCell>
        <mxCell id="v3QOiCCB6ne_9LAJvWD1-69" value="FK" style="shape=partialRectangle;connectable=0;fillColor=none;top=0;left=0;bottom=0;right=0;fontStyle=1;overflow=hidden;html=1;whiteSpace=wrap;" vertex="1" parent="v3QOiCCB6ne_9LAJvWD1-68">
          <mxGeometry width="60" height="30" as="geometry">
            <mxRectangle width="60" height="30" as="alternateBounds" />
          </mxGeometry>
        </mxCell>
        <mxCell id="v3QOiCCB6ne_9LAJvWD1-70" value="IdTipo" style="shape=partialRectangle;connectable=0;fillColor=none;top=0;left=0;bottom=0;right=0;align=left;spacingLeft=6;fontStyle=5;overflow=hidden;html=1;whiteSpace=wrap;" vertex="1" parent="v3QOiCCB6ne_9LAJvWD1-68">
          <mxGeometry x="60" width="120" height="30" as="geometry">
            <mxRectangle width="120" height="30" as="alternateBounds" />
          </mxGeometry>
        </mxCell>
        <mxCell id="v3QOiCCB6ne_9LAJvWD1-71" value="" style="shape=tableRow;horizontal=0;startSize=0;swimlaneHead=0;swimlaneBody=0;fillColor=none;collapsible=0;dropTarget=0;points=[[0,0.5],[1,0.5]];portConstraint=eastwest;top=0;left=0;right=0;bottom=0;html=1;" vertex="1" parent="v3QOiCCB6ne_9LAJvWD1-64">
          <mxGeometry y="80" width="180" height="30" as="geometry" />
        </mxCell>
        <mxCell id="v3QOiCCB6ne_9LAJvWD1-72" value="" style="shape=partialRectangle;connectable=0;fillColor=none;top=0;left=0;bottom=0;right=0;editable=1;overflow=hidden;html=1;whiteSpace=wrap;" vertex="1" parent="v3QOiCCB6ne_9LAJvWD1-71">
          <mxGeometry width="60" height="30" as="geometry">
            <mxRectangle width="60" height="30" as="alternateBounds" />
          </mxGeometry>
        </mxCell>
        <mxCell id="v3QOiCCB6ne_9LAJvWD1-73" value="Nome" style="shape=partialRectangle;connectable=0;fillColor=none;top=0;left=0;bottom=0;right=0;align=left;spacingLeft=6;overflow=hidden;html=1;whiteSpace=wrap;" vertex="1" parent="v3QOiCCB6ne_9LAJvWD1-71">
          <mxGeometry x="60" width="120" height="30" as="geometry">
            <mxRectangle width="120" height="30" as="alternateBounds" />
          </mxGeometry>
        </mxCell>
        <mxCell id="v3QOiCCB6ne_9LAJvWD1-78" value="Pets" style="shape=table;startSize=30;container=1;collapsible=1;childLayout=tableLayout;fixedRows=1;rowLines=0;fontStyle=1;align=center;resizeLast=1;html=1;whiteSpace=wrap;" vertex="1" parent="1">
          <mxGeometry x="557" y="720" width="180" height="210" as="geometry" />
        </mxCell>
        <mxCell id="v3QOiCCB6ne_9LAJvWD1-79" value="" style="shape=tableRow;horizontal=0;startSize=0;swimlaneHead=0;swimlaneBody=0;fillColor=none;collapsible=0;dropTarget=0;points=[[0,0.5],[1,0.5]];portConstraint=eastwest;top=0;left=0;right=0;bottom=0;html=1;" vertex="1" parent="v3QOiCCB6ne_9LAJvWD1-78">
          <mxGeometry y="30" width="180" height="30" as="geometry" />
        </mxCell>
        <mxCell id="v3QOiCCB6ne_9LAJvWD1-80" value="PK" style="shape=partialRectangle;connectable=0;fillColor=none;top=0;left=0;bottom=0;right=0;fontStyle=1;overflow=hidden;html=1;whiteSpace=wrap;" vertex="1" parent="v3QOiCCB6ne_9LAJvWD1-79">
          <mxGeometry width="60" height="30" as="geometry">
            <mxRectangle width="60" height="30" as="alternateBounds" />
          </mxGeometry>
        </mxCell>
        <mxCell id="v3QOiCCB6ne_9LAJvWD1-81" value="IdPet" style="shape=partialRectangle;connectable=0;fillColor=none;top=0;left=0;bottom=0;right=0;align=left;spacingLeft=6;fontStyle=5;overflow=hidden;html=1;whiteSpace=wrap;" vertex="1" parent="v3QOiCCB6ne_9LAJvWD1-79">
          <mxGeometry x="60" width="120" height="30" as="geometry">
            <mxRectangle width="120" height="30" as="alternateBounds" />
          </mxGeometry>
        </mxCell>
        <mxCell id="v3QOiCCB6ne_9LAJvWD1-97" style="shape=tableRow;horizontal=0;startSize=0;swimlaneHead=0;swimlaneBody=0;fillColor=none;collapsible=0;dropTarget=0;points=[[0,0.5],[1,0.5]];portConstraint=eastwest;top=0;left=0;right=0;bottom=1;html=1;" vertex="1" parent="v3QOiCCB6ne_9LAJvWD1-78">
          <mxGeometry y="60" width="180" height="30" as="geometry" />
        </mxCell>
        <mxCell id="v3QOiCCB6ne_9LAJvWD1-98" value="FK" style="shape=partialRectangle;connectable=0;fillColor=none;top=0;left=0;bottom=0;right=0;fontStyle=1;overflow=hidden;html=1;whiteSpace=wrap;" vertex="1" parent="v3QOiCCB6ne_9LAJvWD1-97">
          <mxGeometry width="60" height="30" as="geometry">
            <mxRectangle width="60" height="30" as="alternateBounds" />
          </mxGeometry>
        </mxCell>
        <mxCell id="v3QOiCCB6ne_9LAJvWD1-99" value="IdVeterinario" style="shape=partialRectangle;connectable=0;fillColor=none;top=0;left=0;bottom=0;right=0;align=left;spacingLeft=6;fontStyle=5;overflow=hidden;html=1;whiteSpace=wrap;" vertex="1" parent="v3QOiCCB6ne_9LAJvWD1-97">
          <mxGeometry x="60" width="120" height="30" as="geometry">
            <mxRectangle width="120" height="30" as="alternateBounds" />
          </mxGeometry>
        </mxCell>
        <mxCell id="v3QOiCCB6ne_9LAJvWD1-82" value="" style="shape=tableRow;horizontal=0;startSize=0;swimlaneHead=0;swimlaneBody=0;fillColor=none;collapsible=0;dropTarget=0;points=[[0,0.5],[1,0.5]];portConstraint=eastwest;top=0;left=0;right=0;bottom=1;html=1;" vertex="1" parent="v3QOiCCB6ne_9LAJvWD1-78">
          <mxGeometry y="90" width="180" height="30" as="geometry" />
        </mxCell>
        <mxCell id="v3QOiCCB6ne_9LAJvWD1-83" value="FK" style="shape=partialRectangle;connectable=0;fillColor=none;top=0;left=0;bottom=0;right=0;fontStyle=1;overflow=hidden;html=1;whiteSpace=wrap;" vertex="1" parent="v3QOiCCB6ne_9LAJvWD1-82">
          <mxGeometry width="60" height="30" as="geometry">
            <mxRectangle width="60" height="30" as="alternateBounds" />
          </mxGeometry>
        </mxCell>
        <mxCell id="v3QOiCCB6ne_9LAJvWD1-84" value="IdRaça" style="shape=partialRectangle;connectable=0;fillColor=none;top=0;left=0;bottom=0;right=0;align=left;spacingLeft=6;fontStyle=5;overflow=hidden;html=1;whiteSpace=wrap;" vertex="1" parent="v3QOiCCB6ne_9LAJvWD1-82">
          <mxGeometry x="60" width="120" height="30" as="geometry">
            <mxRectangle width="120" height="30" as="alternateBounds" />
          </mxGeometry>
        </mxCell>
        <mxCell id="v3QOiCCB6ne_9LAJvWD1-85" value="" style="shape=tableRow;horizontal=0;startSize=0;swimlaneHead=0;swimlaneBody=0;fillColor=none;collapsible=0;dropTarget=0;points=[[0,0.5],[1,0.5]];portConstraint=eastwest;top=0;left=0;right=0;bottom=0;html=1;" vertex="1" parent="v3QOiCCB6ne_9LAJvWD1-78">
          <mxGeometry y="120" width="180" height="30" as="geometry" />
        </mxCell>
        <mxCell id="v3QOiCCB6ne_9LAJvWD1-86" value="" style="shape=partialRectangle;connectable=0;fillColor=none;top=0;left=0;bottom=0;right=0;editable=1;overflow=hidden;html=1;whiteSpace=wrap;" vertex="1" parent="v3QOiCCB6ne_9LAJvWD1-85">
          <mxGeometry width="60" height="30" as="geometry">
            <mxRectangle width="60" height="30" as="alternateBounds" />
          </mxGeometry>
        </mxCell>
        <mxCell id="v3QOiCCB6ne_9LAJvWD1-87" value="Dono" style="shape=partialRectangle;connectable=0;fillColor=none;top=0;left=0;bottom=0;right=0;align=left;spacingLeft=6;overflow=hidden;html=1;whiteSpace=wrap;" vertex="1" parent="v3QOiCCB6ne_9LAJvWD1-85">
          <mxGeometry x="60" width="120" height="30" as="geometry">
            <mxRectangle width="120" height="30" as="alternateBounds" />
          </mxGeometry>
        </mxCell>
        <mxCell id="v3QOiCCB6ne_9LAJvWD1-88" value="" style="shape=tableRow;horizontal=0;startSize=0;swimlaneHead=0;swimlaneBody=0;fillColor=none;collapsible=0;dropTarget=0;points=[[0,0.5],[1,0.5]];portConstraint=eastwest;top=0;left=0;right=0;bottom=0;html=1;" vertex="1" parent="v3QOiCCB6ne_9LAJvWD1-78">
          <mxGeometry y="150" width="180" height="30" as="geometry" />
        </mxCell>
        <mxCell id="v3QOiCCB6ne_9LAJvWD1-89" value="" style="shape=partialRectangle;connectable=0;fillColor=none;top=0;left=0;bottom=0;right=0;editable=1;overflow=hidden;html=1;whiteSpace=wrap;" vertex="1" parent="v3QOiCCB6ne_9LAJvWD1-88">
          <mxGeometry width="60" height="30" as="geometry">
            <mxRectangle width="60" height="30" as="alternateBounds" />
          </mxGeometry>
        </mxCell>
        <mxCell id="v3QOiCCB6ne_9LAJvWD1-90" value="Nome" style="shape=partialRectangle;connectable=0;fillColor=none;top=0;left=0;bottom=0;right=0;align=left;spacingLeft=6;overflow=hidden;html=1;whiteSpace=wrap;" vertex="1" parent="v3QOiCCB6ne_9LAJvWD1-88">
          <mxGeometry x="60" width="120" height="30" as="geometry">
            <mxRectangle width="120" height="30" as="alternateBounds" />
          </mxGeometry>
        </mxCell>
        <mxCell id="v3QOiCCB6ne_9LAJvWD1-108" style="shape=tableRow;horizontal=0;startSize=0;swimlaneHead=0;swimlaneBody=0;fillColor=none;collapsible=0;dropTarget=0;points=[[0,0.5],[1,0.5]];portConstraint=eastwest;top=0;left=0;right=0;bottom=0;html=1;" vertex="1" parent="v3QOiCCB6ne_9LAJvWD1-78">
          <mxGeometry y="180" width="180" height="30" as="geometry" />
        </mxCell>
        <mxCell id="v3QOiCCB6ne_9LAJvWD1-109" style="shape=partialRectangle;connectable=0;fillColor=none;top=0;left=0;bottom=0;right=0;editable=1;overflow=hidden;html=1;whiteSpace=wrap;" vertex="1" parent="v3QOiCCB6ne_9LAJvWD1-108">
          <mxGeometry width="60" height="30" as="geometry">
            <mxRectangle width="60" height="30" as="alternateBounds" />
          </mxGeometry>
        </mxCell>
        <mxCell id="v3QOiCCB6ne_9LAJvWD1-110" value="Data de Nascimento" style="shape=partialRectangle;connectable=0;fillColor=none;top=0;left=0;bottom=0;right=0;align=left;spacingLeft=6;overflow=hidden;html=1;whiteSpace=wrap;" vertex="1" parent="v3QOiCCB6ne_9LAJvWD1-108">
          <mxGeometry x="60" width="120" height="30" as="geometry">
            <mxRectangle width="120" height="30" as="alternateBounds" />
          </mxGeometry>
        </mxCell>
        <mxCell id="v3QOiCCB6ne_9LAJvWD1-100" value="n" style="text;html=1;strokeColor=none;fillColor=none;align=center;verticalAlign=middle;whiteSpace=wrap;rounded=0;" vertex="1" parent="1">
          <mxGeometry x="420" y="352.5" width="60" height="30" as="geometry" />
        </mxCell>
        <mxCell id="v3QOiCCB6ne_9LAJvWD1-101" value="1" style="text;html=1;strokeColor=none;fillColor=none;align=center;verticalAlign=middle;whiteSpace=wrap;rounded=0;" vertex="1" parent="1">
          <mxGeometry x="440" y="160" width="60" height="30" as="geometry" />
        </mxCell>
        <mxCell id="v3QOiCCB6ne_9LAJvWD1-103" value="n" style="text;html=1;strokeColor=none;fillColor=none;align=center;verticalAlign=middle;whiteSpace=wrap;rounded=0;" vertex="1" parent="1">
          <mxGeometry x="560" y="160" width="60" height="30" as="geometry" />
        </mxCell>
        <mxCell id="v3QOiCCB6ne_9LAJvWD1-104" value="Raça" style="rounded=0;whiteSpace=wrap;html=1;" vertex="1" parent="1">
          <mxGeometry x="480" y="170" width="90" height="40" as="geometry" />
        </mxCell>
        <mxCell id="v3QOiCCB6ne_9LAJvWD1-105" value="Tipo de Pet" style="rounded=0;whiteSpace=wrap;html=1;" vertex="1" parent="1">
          <mxGeometry x="737" y="170" width="80" height="40" as="geometry" />
        </mxCell>
        <mxCell id="v3QOiCCB6ne_9LAJvWD1-106" value="1" style="text;html=1;strokeColor=none;fillColor=none;align=center;verticalAlign=middle;whiteSpace=wrap;rounded=0;" vertex="1" parent="1">
          <mxGeometry x="690" y="160" width="60" height="30" as="geometry" />
        </mxCell>
        <mxCell id="v3QOiCCB6ne_9LAJvWD1-107" style="edgeStyle=orthogonalEdgeStyle;rounded=0;orthogonalLoop=1;jettySize=auto;html=1;exitX=1;exitY=0.5;exitDx=0;exitDy=0;entryX=0;entryY=0.5;entryDx=0;entryDy=0;endArrow=ERoneToMany;endFill=0;" edge="1" parent="1" source="v3QOiCCB6ne_9LAJvWD1-49" target="v3QOiCCB6ne_9LAJvWD1-68">
          <mxGeometry relative="1" as="geometry" />
        </mxCell>
        <mxCell id="v3QOiCCB6ne_9LAJvWD1-111" style="edgeStyle=orthogonalEdgeStyle;rounded=0;orthogonalLoop=1;jettySize=auto;html=1;entryX=0;entryY=0.5;entryDx=0;entryDy=0;endArrow=ERoneToMany;endFill=0;" edge="1" parent="1" source="v3QOiCCB6ne_9LAJvWD1-65" target="v3QOiCCB6ne_9LAJvWD1-82">
          <mxGeometry relative="1" as="geometry" />
        </mxCell>
        <mxCell id="v3QOiCCB6ne_9LAJvWD1-113" style="edgeStyle=orthogonalEdgeStyle;rounded=0;orthogonalLoop=1;jettySize=auto;html=1;entryX=0;entryY=0.5;entryDx=0;entryDy=0;endArrow=ERoneToMany;endFill=0;" edge="1" parent="1" source="v3QOiCCB6ne_9LAJvWD1-19" target="v3QOiCCB6ne_9LAJvWD1-97">
          <mxGeometry relative="1" as="geometry" />
        </mxCell>
        <mxCell id="v3QOiCCB6ne_9LAJvWD1-114" value="Conceitual" style="rounded=0;whiteSpace=wrap;html=1;fillColor=#f8cecc;strokeColor=#b85450;" vertex="1" parent="1">
          <mxGeometry x="280" y="160" width="120" height="60" as="geometry" />
        </mxCell>
        <mxCell id="v3QOiCCB6ne_9LAJvWD1-115" value="Lógico" style="rounded=0;whiteSpace=wrap;html=1;fillColor=#f8cecc;strokeColor=#b85450;" vertex="1" parent="1">
          <mxGeometry x="560" y="610" width="120" height="60" as="geometry" />
        </mxCell>
        <mxCell id="v3QOiCCB6ne_9LAJvWD1-116" value="Físico" style="rounded=0;whiteSpace=wrap;html=1;fillColor=#f8cecc;strokeColor=#b85450;" vertex="1" parent="1">
          <mxGeometry x="60" y="1090" width="120" height="60" as="geometry" />
        </mxCell>
        <mxCell id="v3QOiCCB6ne_9LAJvWD1-117" value="&lt;table xmlns=&quot;http://www.w3.org/1999/xhtml&quot; cellspacing=&quot;0&quot; cellpadding=&quot;0&quot; dir=&quot;ltr&quot; border=&quot;1&quot; style=&quot;table-layout:fixed;font-size:10pt;font-family:Arial;width:0px;border-collapse:collapse;border:none&quot;&gt;&lt;colgroup&gt;&lt;col width=&quot;85&quot;&gt;&lt;col width=&quot;328&quot;&gt;&lt;/colgroup&gt;&lt;tbody&gt;&lt;tr style=&quot;height:21px;&quot;&gt;&lt;td style=&quot;border-top:1px solid #000000;border-right:1px solid #000000;border-bottom:1px solid #000000;border-left:1px solid #000000;overflow:hidden;padding:2px 3px 2px 3px;vertical-align:bottom;text-align:center;&quot; rowspan=&quot;1&quot; colspan=&quot;2&quot; data-sheets-value=&quot;{&amp;quot;1&amp;quot;:2,&amp;quot;2&amp;quot;:&amp;quot;Clinica&amp;quot;}&quot;&gt;Clinica&lt;/td&gt;&lt;/tr&gt;&lt;tr style=&quot;height:21px;&quot;&gt;&lt;td style=&quot;border-right:1px solid #000000;border-bottom:1px solid #000000;border-left:1px solid #000000;overflow:hidden;padding:2px 3px 2px 3px;vertical-align:bottom;text-align:center;&quot; data-sheets-value=&quot;{&amp;quot;1&amp;quot;:2,&amp;quot;2&amp;quot;:&amp;quot;IdClinica&amp;quot;}&quot;&gt;IdClinica&lt;/td&gt;&lt;td style=&quot;border-right:1px solid #000000;border-bottom:1px solid #000000;overflow:hidden;padding:2px 3px 2px 3px;vertical-align:bottom;text-align:center;&quot; data-sheets-value=&quot;{&amp;quot;1&amp;quot;:2,&amp;quot;2&amp;quot;:&amp;quot;Endereço&amp;quot;}&quot;&gt;Endereço&lt;/td&gt;&lt;/tr&gt;&lt;tr style=&quot;height:21px;&quot;&gt;&lt;td style=&quot;border-right:1px solid #000000;border-bottom:1px solid #000000;border-left:1px solid #000000;overflow:hidden;padding:2px 3px 2px 3px;vertical-align:bottom;text-align:center;&quot; data-sheets-value=&quot;{&amp;quot;1&amp;quot;:3,&amp;quot;3&amp;quot;:1}&quot;&gt;1&lt;/td&gt;&lt;td style=&quot;border-right:1px solid #000000;border-bottom:1px solid #000000;overflow:hidden;padding:2px 3px 2px 3px;vertical-align:bottom;text-align:center;&quot; data-sheets-value=&quot;{&amp;quot;1&amp;quot;:2,&amp;quot;2&amp;quot;:&amp;quot;Rua América,58, Bairro Jurandi -- Diadema, SP&amp;quot;}&quot;&gt;Rua América,58, Bairro Jurandi -- Diadema, SP&lt;/td&gt;&lt;/tr&gt;&lt;tr style=&quot;height:21px;&quot;&gt;&lt;td style=&quot;border-right:1px solid #000000;border-bottom:1px solid #000000;border-left:1px solid #000000;overflow:hidden;padding:2px 3px 2px 3px;vertical-align:bottom;text-align:center;&quot; data-sheets-value=&quot;{&amp;quot;1&amp;quot;:3,&amp;quot;3&amp;quot;:2}&quot;&gt;2&lt;/td&gt;&lt;td style=&quot;border-right:1px solid #000000;border-bottom:1px solid #000000;overflow:hidden;padding:2px 3px 2px 3px;vertical-align:bottom;text-align:center;&quot; data-sheets-value=&quot;{&amp;quot;1&amp;quot;:2,&amp;quot;2&amp;quot;:&amp;quot;Rao João da Cunha, 1180, bairro Herrera -- Mauá, SP&amp;quot;}&quot;&gt;Rao João da Cunha, 1180, bairro Herrera -- Mauá, SP&lt;/td&gt;&lt;/tr&gt;&lt;/tbody&gt;&lt;/table&gt;" style="text;whiteSpace=wrap;html=1;" vertex="1" parent="1">
          <mxGeometry x="17" y="1210" width="423" height="100" as="geometry" />
        </mxCell>
        <mxCell id="v3QOiCCB6ne_9LAJvWD1-118" value="&lt;table xmlns=&quot;http://www.w3.org/1999/xhtml&quot; cellspacing=&quot;0&quot; cellpadding=&quot;0&quot; dir=&quot;ltr&quot; border=&quot;1&quot; style=&quot;table-layout:fixed;font-size:10pt;font-family:Arial;width:0px;border-collapse:collapse;border:none&quot;&gt;&lt;colgroup&gt;&lt;col width=&quot;100&quot;&gt;&lt;col width=&quot;133&quot;&gt;&lt;col width=&quot;100&quot;&gt;&lt;/colgroup&gt;&lt;tbody&gt;&lt;tr style=&quot;height:21px;&quot;&gt;&lt;td style=&quot;border-top:1px solid #000000;border-right:1px solid #000000;border-bottom:1px solid #000000;border-left:1px solid #000000;overflow:hidden;padding:2px 3px 2px 3px;vertical-align:bottom;text-align:center;&quot; rowspan=&quot;1&quot; colspan=&quot;3&quot; data-sheets-value=&quot;{&amp;quot;1&amp;quot;:2,&amp;quot;2&amp;quot;:&amp;quot;Veterinário&amp;quot;}&quot;&gt;Veterinário&lt;/td&gt;&lt;/tr&gt;&lt;tr style=&quot;height:21px;&quot;&gt;&lt;td style=&quot;border-right:1px solid #000000;border-bottom:1px solid #000000;border-left:1px solid #000000;overflow:hidden;padding:2px 3px 2px 3px;vertical-align:bottom;text-align:center;&quot; data-sheets-value=&quot;{&amp;quot;1&amp;quot;:2,&amp;quot;2&amp;quot;:&amp;quot;IdVeterinario&amp;quot;}&quot;&gt;IdVeterinario&lt;/td&gt;&lt;td style=&quot;border-right:1px solid #000000;border-bottom:1px solid #000000;overflow:hidden;padding:2px 3px 2px 3px;vertical-align:bottom;text-align:center;&quot; data-sheets-value=&quot;{&amp;quot;1&amp;quot;:2,&amp;quot;2&amp;quot;:&amp;quot;IdClinica&amp;quot;}&quot;&gt;IdClinica&lt;/td&gt;&lt;td style=&quot;border-right:1px solid #000000;border-bottom:1px solid #000000;overflow:hidden;padding:2px 3px 2px 3px;vertical-align:bottom;text-align:center;&quot; data-sheets-value=&quot;{&amp;quot;1&amp;quot;:2,&amp;quot;2&amp;quot;:&amp;quot;Nome&amp;quot;}&quot;&gt;Nome&lt;/td&gt;&lt;/tr&gt;&lt;tr style=&quot;height:21px;&quot;&gt;&lt;td style=&quot;border-right:1px solid #000000;border-bottom:1px solid #000000;border-left:1px solid #000000;overflow:hidden;padding:2px 3px 2px 3px;vertical-align:bottom;text-align:center;&quot; data-sheets-value=&quot;{&amp;quot;1&amp;quot;:3,&amp;quot;3&amp;quot;:1}&quot;&gt;1&lt;/td&gt;&lt;td style=&quot;border-right:1px solid #000000;border-bottom:1px solid #000000;overflow:hidden;padding:2px 3px 2px 3px;vertical-align:bottom;text-align:center;&quot; data-sheets-value=&quot;{&amp;quot;1&amp;quot;:3,&amp;quot;3&amp;quot;:2}&quot;&gt;2&lt;/td&gt;&lt;td style=&quot;border-right:1px solid #000000;border-bottom:1px solid #000000;overflow:hidden;padding:2px 3px 2px 3px;vertical-align:bottom;text-align:center;&quot; data-sheets-value=&quot;{&amp;quot;1&amp;quot;:2,&amp;quot;2&amp;quot;:&amp;quot;Carlos&amp;quot;}&quot;&gt;Carlos&lt;/td&gt;&lt;/tr&gt;&lt;tr style=&quot;height:21px;&quot;&gt;&lt;td style=&quot;border-right:1px solid #000000;border-bottom:1px solid #000000;border-left:1px solid #000000;overflow:hidden;padding:2px 3px 2px 3px;vertical-align:bottom;text-align:center;&quot; data-sheets-value=&quot;{&amp;quot;1&amp;quot;:3,&amp;quot;3&amp;quot;:2}&quot;&gt;2&lt;/td&gt;&lt;td style=&quot;border-right:1px solid #000000;border-bottom:1px solid #000000;overflow:hidden;padding:2px 3px 2px 3px;vertical-align:bottom;text-align:center;&quot; data-sheets-value=&quot;{&amp;quot;1&amp;quot;:3,&amp;quot;3&amp;quot;:2}&quot;&gt;2&lt;/td&gt;&lt;td style=&quot;border-right:1px solid #000000;border-bottom:1px solid #000000;overflow:hidden;padding:2px 3px 2px 3px;vertical-align:bottom;text-align:center;&quot; data-sheets-value=&quot;{&amp;quot;1&amp;quot;:2,&amp;quot;2&amp;quot;:&amp;quot;Josué&amp;quot;}&quot;&gt;Josué&lt;/td&gt;&lt;/tr&gt;&lt;tr style=&quot;height:21px;&quot;&gt;&lt;td style=&quot;border-right:1px solid #000000;border-bottom:1px solid #000000;border-left:1px solid #000000;overflow:hidden;padding:2px 3px 2px 3px;vertical-align:bottom;text-align:center;&quot; data-sheets-value=&quot;{&amp;quot;1&amp;quot;:3,&amp;quot;3&amp;quot;:3}&quot;&gt;3&lt;/td&gt;&lt;td style=&quot;border-right:1px solid #000000;border-bottom:1px solid #000000;overflow:hidden;padding:2px 3px 2px 3px;vertical-align:bottom;text-align:center;&quot; data-sheets-value=&quot;{&amp;quot;1&amp;quot;:3,&amp;quot;3&amp;quot;:1}&quot;&gt;1&lt;/td&gt;&lt;td style=&quot;border-right:1px solid #000000;border-bottom:1px solid #000000;overflow:hidden;padding:2px 3px 2px 3px;vertical-align:bottom;text-align:center;&quot; data-sheets-value=&quot;{&amp;quot;1&amp;quot;:2,&amp;quot;2&amp;quot;:&amp;quot;Vagner&amp;quot;}&quot;&gt;Vagner&lt;/td&gt;&lt;/tr&gt;&lt;/tbody&gt;&lt;/table&gt;" style="text;whiteSpace=wrap;html=1;" vertex="1" parent="1">
          <mxGeometry x="474" y="1190" width="343" height="120" as="geometry" />
        </mxCell>
        <mxCell id="v3QOiCCB6ne_9LAJvWD1-119" value="&#xa;&lt;table style=&quot;table-layout:fixed;font-size:10pt;font-family:Arial;width:0px;border-collapse:collapse;border:none&quot; border=&quot;1&quot; dir=&quot;ltr&quot; cellpadding=&quot;0&quot; cellspacing=&quot;0&quot; xmlns=&quot;http://www.w3.org/1999/xhtml&quot;&gt;&lt;colgroup&gt;&lt;col width=&quot;100&quot;&gt;&lt;col width=&quot;100&quot;&gt;&lt;col width=&quot;133&quot;&gt;&lt;/colgroup&gt;&lt;tbody&gt;&lt;tr style=&quot;height:21px;&quot;&gt;&lt;td data-sheets-value=&quot;{&amp;quot;1&amp;quot;:2,&amp;quot;2&amp;quot;:&amp;quot;Raça&amp;quot;}&quot; colspan=&quot;3&quot; rowspan=&quot;1&quot; style=&quot;border-top:1px solid #000000;border-right:1px solid #000000;border-bottom:1px solid #000000;border-left:1px solid #000000;overflow:hidden;padding:2px 3px 2px 3px;vertical-align:bottom;text-align:center;&quot;&gt;Raça&lt;/td&gt;&lt;/tr&gt;&lt;tr style=&quot;height:21px;&quot;&gt;&lt;td data-sheets-value=&quot;{&amp;quot;1&amp;quot;:2,&amp;quot;2&amp;quot;:&amp;quot;IdRaça&amp;quot;}&quot; style=&quot;border-right:1px solid #000000;border-bottom:1px solid #000000;border-left:1px solid #000000;overflow:hidden;padding:2px 3px 2px 3px;vertical-align:bottom;text-align:center;&quot;&gt;IdRaça&lt;/td&gt;&lt;td data-sheets-value=&quot;{&amp;quot;1&amp;quot;:2,&amp;quot;2&amp;quot;:&amp;quot;IdTipo&amp;quot;}&quot; style=&quot;border-right:1px solid #000000;border-bottom:1px solid #000000;overflow:hidden;padding:2px 3px 2px 3px;vertical-align:bottom;text-align:center;&quot;&gt;IdTipo&lt;/td&gt;&lt;td data-sheets-value=&quot;{&amp;quot;1&amp;quot;:2,&amp;quot;2&amp;quot;:&amp;quot;Nome&amp;quot;}&quot; style=&quot;border-right:1px solid #000000;border-bottom:1px solid #000000;overflow:hidden;padding:2px 3px 2px 3px;vertical-align:bottom;text-align:center;&quot;&gt;Nome&lt;/td&gt;&lt;/tr&gt;&lt;tr style=&quot;height:21px;&quot;&gt;&lt;td data-sheets-value=&quot;{&amp;quot;1&amp;quot;:3,&amp;quot;3&amp;quot;:1}&quot; style=&quot;border-right:1px solid #000000;border-bottom:1px solid #000000;border-left:1px solid #000000;overflow:hidden;padding:2px 3px 2px 3px;vertical-align:bottom;text-align:center;&quot;&gt;1&lt;/td&gt;&lt;td data-sheets-value=&quot;{&amp;quot;1&amp;quot;:3,&amp;quot;3&amp;quot;:4}&quot; style=&quot;border-right:1px solid #000000;border-bottom:1px solid #000000;overflow:hidden;padding:2px 3px 2px 3px;vertical-align:bottom;text-align:center;&quot;&gt;4&lt;/td&gt;&lt;td data-sheets-value=&quot;{&amp;quot;1&amp;quot;:2,&amp;quot;2&amp;quot;:&amp;quot;Papagaio-verdadeiro&amp;quot;}&quot; style=&quot;border-right:1px solid #000000;border-bottom:1px solid #000000;overflow:hidden;padding:2px 3px 2px 3px;vertical-align:bottom;background-color:#ffffff;font-family:Google Sans;font-weight:normal;color:#202124;&quot;&gt;Papagaio-verdadeiro&lt;/td&gt;&lt;/tr&gt;&lt;tr style=&quot;height:21px;&quot;&gt;&lt;td data-sheets-value=&quot;{&amp;quot;1&amp;quot;:3,&amp;quot;3&amp;quot;:2}&quot; style=&quot;border-right:1px solid #000000;border-bottom:1px solid #000000;border-left:1px solid #000000;overflow:hidden;padding:2px 3px 2px 3px;vertical-align:bottom;text-align:center;&quot;&gt;2&lt;/td&gt;&lt;td data-sheets-value=&quot;{&amp;quot;1&amp;quot;:3,&amp;quot;3&amp;quot;:2}&quot; style=&quot;border-right:1px solid #000000;border-bottom:1px solid #000000;overflow:hidden;padding:2px 3px 2px 3px;vertical-align:bottom;text-align:center;&quot;&gt;2&lt;/td&gt;&lt;td data-sheets-value=&quot;{&amp;quot;1&amp;quot;:2,&amp;quot;2&amp;quot;:&amp;quot;Persa&amp;quot;}&quot; style=&quot;border-right:1px solid #000000;border-bottom:1px solid #000000;overflow:hidden;padding:2px 3px 2px 3px;vertical-align:bottom;text-align:center;&quot;&gt;Persa&lt;/td&gt;&lt;/tr&gt;&lt;tr style=&quot;height:21px;&quot;&gt;&lt;td data-sheets-value=&quot;{&amp;quot;1&amp;quot;:3,&amp;quot;3&amp;quot;:3}&quot; style=&quot;border-right:1px solid #000000;border-bottom:1px solid #000000;border-left:1px solid #000000;overflow:hidden;padding:2px 3px 2px 3px;vertical-align:bottom;text-align:center;&quot;&gt;3&lt;/td&gt;&lt;td data-sheets-value=&quot;{&amp;quot;1&amp;quot;:3,&amp;quot;3&amp;quot;:1}&quot; style=&quot;border-right:1px solid #000000;border-bottom:1px solid #000000;overflow:hidden;padding:2px 3px 2px 3px;vertical-align:bottom;text-align:center;&quot;&gt;1&lt;/td&gt;&lt;td data-sheets-value=&quot;{&amp;quot;1&amp;quot;:2,&amp;quot;2&amp;quot;:&amp;quot;Pastor-Alemão&amp;quot;}&quot; style=&quot;border-right:1px solid #000000;border-bottom:1px solid #000000;overflow:hidden;padding:2px 3px 2px 3px;vertical-align:bottom;text-align:center;&quot;&gt;Pastor-Alemão&lt;/td&gt;&lt;/tr&gt;&lt;tr style=&quot;height:21px;&quot;&gt;&lt;td data-sheets-value=&quot;{&amp;quot;1&amp;quot;:3,&amp;quot;3&amp;quot;:4}&quot; style=&quot;border-right:1px solid #000000;border-bottom:1px solid #000000;border-left:1px solid #000000;overflow:hidden;padding:2px 3px 2px 3px;vertical-align:bottom;text-align:center;&quot;&gt;4&lt;/td&gt;&lt;td data-sheets-value=&quot;{&amp;quot;1&amp;quot;:3,&amp;quot;3&amp;quot;:3}&quot; style=&quot;border-right:1px solid #000000;border-bottom:1px solid #000000;overflow:hidden;padding:2px 3px 2px 3px;vertical-align:bottom;text-align:center;&quot;&gt;3&lt;/td&gt;&lt;td data-sheets-value=&quot;{&amp;quot;1&amp;quot;:2,&amp;quot;2&amp;quot;:&amp;quot;Colisa&amp;quot;}&quot; style=&quot;border-right:1px solid #000000;border-bottom:1px solid #000000;overflow:hidden;padding:2px 3px 2px 3px;vertical-align:bottom;background-color:#ffffff;font-family:Google Sans;font-weight:normal;color:#202124;text-align:center;&quot;&gt;Colisa&lt;/td&gt;&lt;/tr&gt;&lt;tr style=&quot;height:21px;&quot;&gt;&lt;td data-sheets-value=&quot;{&amp;quot;1&amp;quot;:3,&amp;quot;3&amp;quot;:5}&quot; style=&quot;border-right:1px solid #000000;border-bottom:1px solid #000000;border-left:1px solid #000000;overflow:hidden;padding:2px 3px 2px 3px;vertical-align:bottom;text-align:center;&quot;&gt;5&lt;/td&gt;&lt;td data-sheets-value=&quot;{&amp;quot;1&amp;quot;:3,&amp;quot;3&amp;quot;:3}&quot; style=&quot;border-right:1px solid #000000;border-bottom:1px solid #000000;overflow:hidden;padding:2px 3px 2px 3px;vertical-align:bottom;text-align:center;&quot;&gt;3&lt;/td&gt;&lt;td data-sheets-value=&quot;{&amp;quot;1&amp;quot;:2,&amp;quot;2&amp;quot;:&amp;quot;Peixe arco-íris&amp;quot;}&quot; style=&quot;border-right:1px solid #000000;border-bottom:1px solid #000000;overflow:hidden;padding:2px 3px 2px 3px;vertical-align:bottom;background-color:#ffffff;font-family:Google Sans;font-weight:normal;color:#202124;text-align:center;&quot;&gt;Peixe arco-íris&lt;/td&gt;&lt;/tr&gt;&lt;/tbody&gt;&lt;/table&gt;&#xa;&#xa;" style="text;whiteSpace=wrap;html=1;" vertex="1" parent="1">
          <mxGeometry x="395" y="1340" width="340" height="180" as="geometry" />
        </mxCell>
        <mxCell id="v3QOiCCB6ne_9LAJvWD1-120" value="&lt;table xmlns=&quot;http://www.w3.org/1999/xhtml&quot; cellspacing=&quot;0&quot; cellpadding=&quot;0&quot; dir=&quot;ltr&quot; border=&quot;1&quot; style=&quot;table-layout:fixed;font-size:10pt;font-family:Arial;width:0px;border-collapse:collapse;border:none&quot;&gt;&lt;colgroup&gt;&lt;col width=&quot;85&quot;&gt;&lt;col width=&quot;85&quot;&gt;&lt;/colgroup&gt;&lt;tbody&gt;&lt;tr style=&quot;height:21px;&quot;&gt;&lt;td style=&quot;border-top:1px solid #000000;border-right:1px solid #000000;border-bottom:1px solid #000000;border-left:1px solid #000000;overflow:hidden;padding:2px 3px 2px 3px;vertical-align:bottom;text-align:center;&quot; rowspan=&quot;1&quot; colspan=&quot;2&quot; data-sheets-value=&quot;{&amp;quot;1&amp;quot;:2,&amp;quot;2&amp;quot;:&amp;quot;Tipo de Pet&amp;quot;}&quot;&gt;Tipo de Pet&lt;/td&gt;&lt;/tr&gt;&lt;tr style=&quot;height:21px;&quot;&gt;&lt;td style=&quot;border-right:1px solid #000000;border-bottom:1px solid #000000;border-left:1px solid #000000;overflow:hidden;padding:2px 3px 2px 3px;vertical-align:bottom;text-align:center;&quot; data-sheets-value=&quot;{&amp;quot;1&amp;quot;:2,&amp;quot;2&amp;quot;:&amp;quot;IdTipo&amp;quot;}&quot;&gt;IdTipo&lt;/td&gt;&lt;td style=&quot;border-right:1px solid #000000;border-bottom:1px solid #000000;overflow:hidden;padding:2px 3px 2px 3px;vertical-align:bottom;text-align:center;&quot; data-sheets-value=&quot;{&amp;quot;1&amp;quot;:2,&amp;quot;2&amp;quot;:&amp;quot;Nome&amp;quot;}&quot;&gt;Nome&lt;/td&gt;&lt;/tr&gt;&lt;tr style=&quot;height:21px;&quot;&gt;&lt;td style=&quot;border-right:1px solid #000000;border-bottom:1px solid #000000;border-left:1px solid #000000;overflow:hidden;padding:2px 3px 2px 3px;vertical-align:bottom;text-align:center;&quot; data-sheets-value=&quot;{&amp;quot;1&amp;quot;:3,&amp;quot;3&amp;quot;:1}&quot;&gt;1&lt;/td&gt;&lt;td style=&quot;border-right:1px solid #000000;border-bottom:1px solid #000000;overflow:hidden;padding:2px 3px 2px 3px;vertical-align:bottom;text-align:center;&quot; data-sheets-value=&quot;{&amp;quot;1&amp;quot;:2,&amp;quot;2&amp;quot;:&amp;quot;Cão&amp;quot;}&quot;&gt;Cão&lt;/td&gt;&lt;/tr&gt;&lt;tr style=&quot;height:21px;&quot;&gt;&lt;td style=&quot;border-right:1px solid #000000;border-bottom:1px solid #000000;border-left:1px solid #000000;overflow:hidden;padding:2px 3px 2px 3px;vertical-align:bottom;text-align:center;&quot; data-sheets-value=&quot;{&amp;quot;1&amp;quot;:3,&amp;quot;3&amp;quot;:2}&quot;&gt;2&lt;/td&gt;&lt;td style=&quot;border-right:1px solid #000000;border-bottom:1px solid #000000;overflow:hidden;padding:2px 3px 2px 3px;vertical-align:bottom;text-align:center;&quot; data-sheets-value=&quot;{&amp;quot;1&amp;quot;:2,&amp;quot;2&amp;quot;:&amp;quot;Gato&amp;quot;}&quot;&gt;Gato&lt;/td&gt;&lt;/tr&gt;&lt;tr style=&quot;height:21px;&quot;&gt;&lt;td style=&quot;border-right:1px solid #000000;border-bottom:1px solid #000000;border-left:1px solid #000000;overflow:hidden;padding:2px 3px 2px 3px;vertical-align:bottom;text-align:center;&quot; data-sheets-value=&quot;{&amp;quot;1&amp;quot;:3,&amp;quot;3&amp;quot;:3}&quot;&gt;3&lt;/td&gt;&lt;td style=&quot;border-right:1px solid #000000;border-bottom:1px solid #000000;overflow:hidden;padding:2px 3px 2px 3px;vertical-align:bottom;text-align:center;&quot; data-sheets-value=&quot;{&amp;quot;1&amp;quot;:2,&amp;quot;2&amp;quot;:&amp;quot;Peixe&amp;quot;}&quot;&gt;Peixe&lt;/td&gt;&lt;/tr&gt;&lt;tr style=&quot;height:21px;&quot;&gt;&lt;td style=&quot;border-right:1px solid #000000;border-bottom:1px solid #000000;border-left:1px solid #000000;overflow:hidden;padding:2px 3px 2px 3px;vertical-align:bottom;text-align:center;&quot; data-sheets-value=&quot;{&amp;quot;1&amp;quot;:3,&amp;quot;3&amp;quot;:4}&quot;&gt;4&lt;/td&gt;&lt;td style=&quot;border-right:1px solid #000000;border-bottom:1px solid #000000;overflow:hidden;padding:2px 3px 2px 3px;vertical-align:bottom;text-align:center;&quot; data-sheets-value=&quot;{&amp;quot;1&amp;quot;:2,&amp;quot;2&amp;quot;:&amp;quot;Papagaio&amp;quot;}&quot;&gt;Papagaio&lt;/td&gt;&lt;/tr&gt;&lt;/tbody&gt;&lt;/table&gt;" style="text;whiteSpace=wrap;html=1;" vertex="1" parent="1">
          <mxGeometry x="110" y="1360" width="180" height="140" as="geometry" />
        </mxCell>
        <mxCell id="v3QOiCCB6ne_9LAJvWD1-121" value="&lt;table xmlns=&quot;http://www.w3.org/1999/xhtml&quot; cellspacing=&quot;0&quot; cellpadding=&quot;0&quot; dir=&quot;ltr&quot; border=&quot;1&quot; style=&quot;table-layout:fixed;font-size:10pt;font-family:Arial;width:0px;border-collapse:collapse;border:none&quot;&gt;&lt;colgroup&gt;&lt;col width=&quot;100&quot;&gt;&lt;col width=&quot;100&quot;&gt;&lt;col width=&quot;100&quot;&gt;&lt;col width=&quot;100&quot;&gt;&lt;col width=&quot;100&quot;&gt;&lt;col width=&quot;125&quot;&gt;&lt;/colgroup&gt;&lt;tbody&gt;&lt;tr style=&quot;height:21px;&quot;&gt;&lt;td style=&quot;border-top:1px solid #000000;border-right:1px solid #000000;border-bottom:1px solid #000000;border-left:1px solid #000000;overflow:hidden;padding:2px 3px 2px 3px;vertical-align:bottom;text-align:center;&quot; rowspan=&quot;1&quot; colspan=&quot;6&quot; data-sheets-value=&quot;{&amp;quot;1&amp;quot;:2,&amp;quot;2&amp;quot;:&amp;quot;PET&amp;quot;}&quot;&gt;PET&lt;/td&gt;&lt;/tr&gt;&lt;tr style=&quot;height:21px;&quot;&gt;&lt;td style=&quot;border-right:1px solid #000000;border-bottom:1px solid #000000;border-left:1px solid #000000;overflow:hidden;padding:2px 3px 2px 3px;vertical-align:bottom;text-align:center;&quot; data-sheets-value=&quot;{&amp;quot;1&amp;quot;:2,&amp;quot;2&amp;quot;:&amp;quot;IdPet&amp;quot;}&quot;&gt;IdPet&lt;/td&gt;&lt;td style=&quot;border-right:1px solid #000000;border-bottom:1px solid #000000;overflow:hidden;padding:2px 3px 2px 3px;vertical-align:bottom;text-align:center;&quot; data-sheets-value=&quot;{&amp;quot;1&amp;quot;:2,&amp;quot;2&amp;quot;:&amp;quot;IdVeterinario&amp;quot;}&quot;&gt;IdVeterinario&lt;/td&gt;&lt;td style=&quot;border-right:1px solid #000000;border-bottom:1px solid #000000;overflow:hidden;padding:2px 3px 2px 3px;vertical-align:bottom;text-align:center;&quot; data-sheets-value=&quot;{&amp;quot;1&amp;quot;:2,&amp;quot;2&amp;quot;:&amp;quot;IdRaça&amp;quot;}&quot;&gt;IdRaça&lt;/td&gt;&lt;td style=&quot;border-right:1px solid #000000;border-bottom:1px solid #000000;overflow:hidden;padding:2px 3px 2px 3px;vertical-align:bottom;text-align:center;&quot; data-sheets-value=&quot;{&amp;quot;1&amp;quot;:2,&amp;quot;2&amp;quot;:&amp;quot;Dono&amp;quot;}&quot;&gt;Dono&lt;/td&gt;&lt;td style=&quot;border-right:1px solid #000000;border-bottom:1px solid #000000;overflow:hidden;padding:2px 3px 2px 3px;vertical-align:bottom;text-align:center;&quot; data-sheets-value=&quot;{&amp;quot;1&amp;quot;:2,&amp;quot;2&amp;quot;:&amp;quot;Nome&amp;quot;}&quot;&gt;Nome&lt;/td&gt;&lt;td style=&quot;border-right:1px solid #000000;border-bottom:1px solid #000000;overflow:hidden;padding:2px 3px 2px 3px;vertical-align:bottom;text-align:center;&quot; data-sheets-value=&quot;{&amp;quot;1&amp;quot;:2,&amp;quot;2&amp;quot;:&amp;quot;Data de Nascimento&amp;quot;}&quot;&gt;Data de Nascimento&lt;/td&gt;&lt;/tr&gt;&lt;tr style=&quot;height:21px;&quot;&gt;&lt;td style=&quot;border-right:1px solid #000000;border-bottom:1px solid #000000;border-left:1px solid #000000;overflow:hidden;padding:2px 3px 2px 3px;vertical-align:bottom;text-align:center;&quot; data-sheets-value=&quot;{&amp;quot;1&amp;quot;:3,&amp;quot;3&amp;quot;:1}&quot;&gt;1&lt;/td&gt;&lt;td style=&quot;border-right:1px solid #000000;border-bottom:1px solid #000000;overflow:hidden;padding:2px 3px 2px 3px;vertical-align:bottom;text-align:center;&quot; data-sheets-value=&quot;{&amp;quot;1&amp;quot;:3,&amp;quot;3&amp;quot;:2}&quot;&gt;2&lt;/td&gt;&lt;td style=&quot;border-right:1px solid #000000;border-bottom:1px solid #000000;overflow:hidden;padding:2px 3px 2px 3px;vertical-align:bottom;text-align:center;&quot; data-sheets-value=&quot;{&amp;quot;1&amp;quot;:3,&amp;quot;3&amp;quot;:3}&quot;&gt;3&lt;/td&gt;&lt;td style=&quot;border-right:1px solid #000000;border-bottom:1px solid #000000;overflow:hidden;padding:2px 3px 2px 3px;vertical-align:bottom;text-align:center;&quot; data-sheets-value=&quot;{&amp;quot;1&amp;quot;:2,&amp;quot;2&amp;quot;:&amp;quot;Eduardo&amp;quot;}&quot;&gt;Eduardo&lt;/td&gt;&lt;td style=&quot;border-right:1px solid #000000;border-bottom:1px solid #000000;overflow:hidden;padding:2px 3px 2px 3px;vertical-align:bottom;text-align:center;&quot; data-sheets-value=&quot;{&amp;quot;1&amp;quot;:2,&amp;quot;2&amp;quot;:&amp;quot;Rúben&amp;quot;}&quot;&gt;Rúben&lt;/td&gt;&lt;td style=&quot;border-right:1px solid #000000;border-bottom:1px solid #000000;overflow:hidden;padding:2px 3px 2px 3px;vertical-align:bottom;text-align:center;&quot; data-sheets-value=&quot;{&amp;quot;1&amp;quot;:3,&amp;quot;3&amp;quot;:43332}&quot; data-sheets-numberformat=&quot;{&amp;quot;1&amp;quot;:5,&amp;quot;2&amp;quot;:&amp;quot;dd/mm/yyyy&amp;quot;,&amp;quot;3&amp;quot;:1}&quot;&gt;20/08/2018&lt;/td&gt;&lt;/tr&gt;&lt;tr style=&quot;height:21px;&quot;&gt;&lt;td style=&quot;border-right:1px solid #000000;border-bottom:1px solid #000000;border-left:1px solid #000000;overflow:hidden;padding:2px 3px 2px 3px;vertical-align:bottom;text-align:center;&quot; data-sheets-value=&quot;{&amp;quot;1&amp;quot;:3,&amp;quot;3&amp;quot;:2}&quot;&gt;2&lt;/td&gt;&lt;td style=&quot;border-right:1px solid #000000;border-bottom:1px solid #000000;overflow:hidden;padding:2px 3px 2px 3px;vertical-align:bottom;text-align:center;&quot; data-sheets-value=&quot;{&amp;quot;1&amp;quot;:3,&amp;quot;3&amp;quot;:3}&quot;&gt;3&lt;/td&gt;&lt;td style=&quot;border-right:1px solid #000000;border-bottom:1px solid #000000;overflow:hidden;padding:2px 3px 2px 3px;vertical-align:bottom;text-align:center;&quot; data-sheets-value=&quot;{&amp;quot;1&amp;quot;:3,&amp;quot;3&amp;quot;:2}&quot;&gt;2&lt;/td&gt;&lt;td style=&quot;border-right:1px solid #000000;border-bottom:1px solid #000000;overflow:hidden;padding:2px 3px 2px 3px;vertical-align:bottom;text-align:center;&quot; data-sheets-value=&quot;{&amp;quot;1&amp;quot;:2,&amp;quot;2&amp;quot;:&amp;quot;Enzo&amp;quot;}&quot;&gt;Enzo&lt;/td&gt;&lt;td style=&quot;border-right:1px solid #000000;border-bottom:1px solid #000000;overflow:hidden;padding:2px 3px 2px 3px;vertical-align:bottom;text-align:center;&quot; data-sheets-value=&quot;{&amp;quot;1&amp;quot;:2,&amp;quot;2&amp;quot;:&amp;quot;Bolinha&amp;quot;}&quot;&gt;Bolinha&lt;/td&gt;&lt;td style=&quot;border-right:1px solid #000000;border-bottom:1px solid #000000;overflow:hidden;padding:2px 3px 2px 3px;vertical-align:bottom;text-align:center;&quot; data-sheets-value=&quot;{&amp;quot;1&amp;quot;:3,&amp;quot;3&amp;quot;:39225}&quot; data-sheets-numberformat=&quot;{&amp;quot;1&amp;quot;:5,&amp;quot;2&amp;quot;:&amp;quot;dd/mm/yyyy&amp;quot;,&amp;quot;3&amp;quot;:1}&quot;&gt;23/05/2007&lt;/td&gt;&lt;/tr&gt;&lt;tr style=&quot;height:21px;&quot;&gt;&lt;td style=&quot;border-right:1px solid #000000;border-bottom:1px solid #000000;border-left:1px solid #000000;overflow:hidden;padding:2px 3px 2px 3px;vertical-align:bottom;text-align:center;&quot; data-sheets-value=&quot;{&amp;quot;1&amp;quot;:3,&amp;quot;3&amp;quot;:3}&quot;&gt;3&lt;/td&gt;&lt;td style=&quot;border-right:1px solid #000000;border-bottom:1px solid #000000;overflow:hidden;padding:2px 3px 2px 3px;vertical-align:bottom;text-align:center;&quot; data-sheets-value=&quot;{&amp;quot;1&amp;quot;:3,&amp;quot;3&amp;quot;:2}&quot;&gt;2&lt;/td&gt;&lt;td style=&quot;border-right:1px solid #000000;border-bottom:1px solid #000000;overflow:hidden;padding:2px 3px 2px 3px;vertical-align:bottom;text-align:center;&quot; data-sheets-value=&quot;{&amp;quot;1&amp;quot;:3,&amp;quot;3&amp;quot;:5}&quot;&gt;5&lt;/td&gt;&lt;td style=&quot;border-right:1px solid #000000;border-bottom:1px solid #000000;overflow:hidden;padding:2px 3px 2px 3px;vertical-align:bottom;text-align:center;&quot; data-sheets-value=&quot;{&amp;quot;1&amp;quot;:2,&amp;quot;2&amp;quot;:&amp;quot;Vitória&amp;quot;}&quot;&gt;Vitória&lt;/td&gt;&lt;td style=&quot;border-right:1px solid #000000;border-bottom:1px solid #000000;overflow:hidden;padding:2px 3px 2px 3px;vertical-align:bottom;text-align:center;&quot; data-sheets-value=&quot;{&amp;quot;1&amp;quot;:2,&amp;quot;2&amp;quot;:&amp;quot;Jesper&amp;quot;}&quot;&gt;Jesper&lt;/td&gt;&lt;td style=&quot;border-right:1px solid #000000;border-bottom:1px solid #000000;overflow:hidden;padding:2px 3px 2px 3px;vertical-align:bottom;text-align:center;&quot; data-sheets-value=&quot;{&amp;quot;1&amp;quot;:3,&amp;quot;3&amp;quot;:42842}&quot; data-sheets-numberformat=&quot;{&amp;quot;1&amp;quot;:5,&amp;quot;2&amp;quot;:&amp;quot;dd/mm/yyyy&amp;quot;,&amp;quot;3&amp;quot;:1}&quot;&gt;17/04/2017&lt;/td&gt;&lt;/tr&gt;&lt;tr style=&quot;height:21px;&quot;&gt;&lt;td style=&quot;border-right:1px solid #000000;border-bottom:1px solid #000000;border-left:1px solid #000000;overflow:hidden;padding:2px 3px 2px 3px;vertical-align:bottom;text-align:center;&quot; data-sheets-value=&quot;{&amp;quot;1&amp;quot;:3,&amp;quot;3&amp;quot;:4}&quot;&gt;4&lt;/td&gt;&lt;td style=&quot;border-right:1px solid #000000;border-bottom:1px solid #000000;overflow:hidden;padding:2px 3px 2px 3px;vertical-align:bottom;text-align:center;&quot; data-sheets-value=&quot;{&amp;quot;1&amp;quot;:3,&amp;quot;3&amp;quot;:1}&quot;&gt;1&lt;/td&gt;&lt;td style=&quot;border-right:1px solid #000000;border-bottom:1px solid #000000;overflow:hidden;padding:2px 3px 2px 3px;vertical-align:bottom;text-align:center;&quot; data-sheets-value=&quot;{&amp;quot;1&amp;quot;:3,&amp;quot;3&amp;quot;:3}&quot;&gt;3&lt;/td&gt;&lt;td style=&quot;border-right:1px solid #000000;border-bottom:1px solid #000000;overflow:hidden;padding:2px 3px 2px 3px;vertical-align:bottom;text-align:center;&quot; data-sheets-value=&quot;{&amp;quot;1&amp;quot;:2,&amp;quot;2&amp;quot;:&amp;quot;Gabriela&amp;quot;}&quot;&gt;Gabriela&lt;/td&gt;&lt;td style=&quot;border-right:1px solid #000000;border-bottom:1px solid #000000;overflow:hidden;padding:2px 3px 2px 3px;vertical-align:bottom;text-align:center;&quot; data-sheets-value=&quot;{&amp;quot;1&amp;quot;:2,&amp;quot;2&amp;quot;:&amp;quot;Joano&amp;quot;}&quot;&gt;Joano&lt;/td&gt;&lt;td style=&quot;border-right:1px solid #000000;border-bottom:1px solid #000000;overflow:hidden;padding:2px 3px 2px 3px;vertical-align:bottom;text-align:center;&quot; data-sheets-value=&quot;{&amp;quot;1&amp;quot;:3,&amp;quot;3&amp;quot;:42198}&quot; data-sheets-numberformat=&quot;{&amp;quot;1&amp;quot;:5,&amp;quot;2&amp;quot;:&amp;quot;dd/mm/yyyy&amp;quot;,&amp;quot;3&amp;quot;:1}&quot;&gt;13/07/2015&lt;/td&gt;&lt;/tr&gt;&lt;tr style=&quot;height:21px;&quot;&gt;&lt;td style=&quot;border-right:1px solid #000000;border-bottom:1px solid #000000;border-left:1px solid #000000;overflow:hidden;padding:2px 3px 2px 3px;vertical-align:bottom;text-align:center;&quot; data-sheets-value=&quot;{&amp;quot;1&amp;quot;:3,&amp;quot;3&amp;quot;:5}&quot;&gt;5&lt;/td&gt;&lt;td style=&quot;border-right:1px solid #000000;border-bottom:1px solid #000000;overflow:hidden;padding:2px 3px 2px 3px;vertical-align:bottom;text-align:center;&quot; data-sheets-value=&quot;{&amp;quot;1&amp;quot;:3,&amp;quot;3&amp;quot;:2}&quot;&gt;2&lt;/td&gt;&lt;td style=&quot;border-right:1px solid #000000;border-bottom:1px solid #000000;overflow:hidden;padding:2px 3px 2px 3px;vertical-align:bottom;text-align:center;&quot; data-sheets-value=&quot;{&amp;quot;1&amp;quot;:3,&amp;quot;3&amp;quot;:1}&quot;&gt;1&lt;/td&gt;&lt;td style=&quot;border-right:1px solid #000000;border-bottom:1px solid #000000;overflow:hidden;padding:2px 3px 2px 3px;vertical-align:bottom;text-align:center;&quot; data-sheets-value=&quot;{&amp;quot;1&amp;quot;:2,&amp;quot;2&amp;quot;:&amp;quot;Henri&amp;quot;}&quot;&gt;Henri&lt;/td&gt;&lt;td style=&quot;border-right:1px solid #000000;border-bottom:1px solid #000000;overflow:hidden;padding:2px 3px 2px 3px;vertical-align:bottom;text-align:center;&quot; data-sheets-value=&quot;{&amp;quot;1&amp;quot;:2,&amp;quot;2&amp;quot;:&amp;quot;Amendoim&amp;quot;}&quot;&gt;Amendoim&lt;/td&gt;&lt;td style=&quot;border-right:1px solid #000000;border-bottom:1px solid #000000;overflow:hidden;padding:2px 3px 2px 3px;vertical-align:bottom;text-align:center;&quot; data-sheets-value=&quot;{&amp;quot;1&amp;quot;:3,&amp;quot;3&amp;quot;:37670}&quot; data-sheets-numberformat=&quot;{&amp;quot;1&amp;quot;:5,&amp;quot;2&amp;quot;:&amp;quot;dd/mm/yyyy&amp;quot;,&amp;quot;3&amp;quot;:1}&quot;&gt;18/02/2003&lt;/td&gt;&lt;/tr&gt;&lt;tr style=&quot;height:21px;&quot;&gt;&lt;td style=&quot;border-right:1px solid #000000;border-bottom:1px solid #000000;border-left:1px solid #000000;overflow:hidden;padding:2px 3px 2px 3px;vertical-align:bottom;text-align:center;&quot; data-sheets-value=&quot;{&amp;quot;1&amp;quot;:3,&amp;quot;3&amp;quot;:6}&quot;&gt;6&lt;/td&gt;&lt;td style=&quot;border-right:1px solid #000000;border-bottom:1px solid #000000;overflow:hidden;padding:2px 3px 2px 3px;vertical-align:bottom;text-align:center;&quot; data-sheets-value=&quot;{&amp;quot;1&amp;quot;:3,&amp;quot;3&amp;quot;:3}&quot;&gt;3&lt;/td&gt;&lt;td style=&quot;border-right:1px solid #000000;border-bottom:1px solid #000000;overflow:hidden;padding:2px 3px 2px 3px;vertical-align:bottom;text-align:center;&quot; data-sheets-value=&quot;{&amp;quot;1&amp;quot;:3,&amp;quot;3&amp;quot;:4}&quot;&gt;4&lt;/td&gt;&lt;td style=&quot;border-right:1px solid #000000;border-bottom:1px solid #000000;overflow:hidden;padding:2px 3px 2px 3px;vertical-align:bottom;text-align:center;&quot; data-sheets-value=&quot;{&amp;quot;1&amp;quot;:2,&amp;quot;2&amp;quot;:&amp;quot;Jessica&amp;quot;}&quot;&gt;Jessica&lt;/td&gt;&lt;td style=&quot;border-right:1px solid #000000;border-bottom:1px solid #000000;overflow:hidden;padding:2px 3px 2px 3px;vertical-align:bottom;text-align:center;&quot; data-sheets-value=&quot;{&amp;quot;1&amp;quot;:2,&amp;quot;2&amp;quot;:&amp;quot;Webert&amp;quot;}&quot;&gt;Webert&lt;/td&gt;&lt;td style=&quot;border-right:1px solid #000000;border-bottom:1px solid #000000;overflow:hidden;padding:2px 3px 2px 3px;vertical-align:bottom;text-align:center;&quot; data-sheets-value=&quot;{&amp;quot;1&amp;quot;:2,&amp;quot;2&amp;quot;:&amp;quot;31/11/2021&amp;quot;}&quot;&gt;31/11/2021&lt;/td&gt;&lt;/tr&gt;&lt;/tbody&gt;&lt;/table&gt;" style="text;whiteSpace=wrap;html=1;" vertex="1" parent="1">
          <mxGeometry x="105" y="1570" width="650" height="200" as="geometry" />
        </mxCell>
      </root>
    </mxGraphModel>
  </diagram>
</mxfile>
